<?xml version="1.0" encoding="UTF-8" standalone="no"?>
<!DOCTYPE svg PUBLIC "-//W3C//DTD SVG 1.1//EN" "http://www.w3.org/Graphics/SVG/1.1/DTD/svg11.dtd">
<!-- Generated by Microsoft Visio, SVG Export 2.4.2_use_case_diagram.svg Page-1 -->
<svg xmlns="http://www.w3.org/2000/svg" xmlns:xlink="http://www.w3.org/1999/xlink" xmlns:ev="http://www.w3.org/2001/xml-events"
		xmlns:v="http://schemas.microsoft.com/visio/2003/SVGExtensions/" width="11in" height="8.5in" viewBox="0 0 792 612"
		xml:space="preserve" color-interpolation-filters="sRGB" class="st5">
	<v:documentProperties v:langID="1033" v:viewMarkup="false">
		<v:userDefs>
			<v:ud v:nameU="msvNoAutoConnect" v:prompt="" v:val="VT0(0):26"/>
		</v:userDefs>
	</v:documentProperties>

	<style type="text/css">
	<![CDATA[
		.st1 {fill:#ffffff;stroke:#000000;stroke-linecap:round;stroke-linejoin:round;stroke-width:0.75}
		.st2 {fill:#000000;font-family:Calibri;font-size:1.00001em}
		.st3 {stroke:#000000;stroke-linecap:round;stroke-linejoin:round;stroke-width:0.75}
		.st4 {fill:#ffffff;fill-opacity:0.95;stroke:#000000;stroke-linecap:round;stroke-linejoin:round;stroke-width:0.75}
		.st5 {fill:none;fill-rule:evenodd;font-size:12px;overflow:visible;stroke-linecap:square;stroke-miterlimit:3}
	]]>
	</style>

	<g v:mID="0" v:index="1" v:groupContext="foregroundPage">
		<v:userDefs>
			<v:ud v:nameU="msvThemeOrder" v:val="VT0(0):26"/>
		</v:userDefs>
		<title>Page-1</title>
		<v:pageProperties v:drawingScale="1" v:pageScale="1" v:drawingUnits="0" v:shadowOffsetX="9" v:shadowOffsetY="-9"/>
		<v:layer v:name="Connector" v:index="0"/>
		<g id="shape1-1" v:mID="1" v:groupContext="shape" transform="translate(135,-243)">
			<title>Actor</title>
			<v:userDefs>
				<v:ud v:nameU="visVersion" v:prompt="" v:val="VT0(15):26"/>
			</v:userDefs>
			<path d="M7.2 612 L7.2 576 L7.2 590.4 L0 590.4 L0 561.6 L3.6 558 L32.4 558 L36 561.6 L36 590.4 L28.8 590.4 L28.8 576
						 L28.8 612 L18 612 L18 583.2 L18 612 L7.2 612 ZM25.2 547.2 A7.2 7.2 -180 1 0 10.8 547.2 A7.2 7.2 -180 1 0
						 25.2 547.2 Z" class="st1"/>
		</g>
		<g id="shape2-3" v:mID="2" v:groupContext="shape" transform="translate(261,-387)">
			<title>Use Case</title>
			<desc>Új játék</desc>
			<v:userDefs>
				<v:ud v:nameU="visVersion" v:prompt="" v:val="VT0(15):26"/>
			</v:userDefs>
			<v:textBlock v:margins="rect(4,4,4,4)"/>
			<v:textRect cx="54" cy="594" width="108" height="36"/>
			<ellipse cx="54" cy="594" rx="54" ry="18" class="st1"/>
			<text x="35.33" y="597.6" class="st2" v:langID="1038"><v:paragraph v:horizAlign="1"/><v:tabList/>Új játék</text>		</g>
		<g id="shape3-6" v:mID="3" v:groupContext="shape" transform="translate(279,-333)">
			<title>Use Case.3</title>
			<desc>Pálya kiválasztása</desc>
			<v:userDefs>
				<v:ud v:nameU="visVersion" v:prompt="" v:val="VT0(15):26"/>
			</v:userDefs>
			<v:textBlock v:margins="rect(4,4,4,4)"/>
			<v:textRect cx="54" cy="594" width="108" height="36"/>
			<ellipse cx="54" cy="594" rx="54" ry="18" class="st1"/>
			<text x="10.94" y="597.6" class="st2" v:langID="1038"><v:paragraph v:horizAlign="1"/><v:tabList/>Pálya kiválasztása</text>		</g>
		<g id="shape4-9" v:mID="4" v:groupContext="shape" transform="translate(279,-279)">
			<title>Use Case.4</title>
			<desc>Torony/Akadály elhelyezése</desc>
			<v:userDefs>
				<v:ud v:nameU="visVersion" v:prompt="" v:val="VT0(15):26"/>
			</v:userDefs>
			<v:textBlock v:margins="rect(4,4,4,4)"/>
			<v:textRect cx="73.7025" cy="594" width="147.41" height="36"/>
			<ellipse cx="73.7025" cy="594" rx="73.7025" ry="18" class="st1"/>
			<text x="5.36" y="597.6" class="st2" v:langID="1038"><v:paragraph v:horizAlign="1"/><v:tabList/>Torony/Akadály elhelyezése</text>		</g>
		<g id="shape6-12" v:mID="6" v:groupContext="shape" transform="translate(180,-171)">
			<title>Use Case.6</title>
			<desc>Torony/Akadály eladása</desc>
			<v:userDefs>
				<v:ud v:nameU="visVersion" v:prompt="" v:val="VT0(15):26"/>
			</v:userDefs>
			<v:textBlock v:margins="rect(4,4,4,4)"/>
			<v:textRect cx="63.92" cy="594" width="127.84" height="36"/>
			<ellipse cx="63.92" cy="594" rx="63.92" ry="18" class="st1"/>
			<text x="5.36" y="597.6" class="st2" v:langID="1038"><v:paragraph v:horizAlign="1"/><v:tabList/>Torony/Akadály eladása</text>		</g>
		<g id="shape7-15" v:mID="7" v:groupContext="shape" v:layerMember="0" transform="translate(167.547,-264.6)">
			<title>Association</title>
			<v:userDefs>
				<v:ud v:nameU="visVersion" v:prompt="" v:val="VT0(15):26"/>
			</v:userDefs>
			<path d="M0 612 L58.88 670.29" class="st3"/>
		</g>
		<g id="shape8-18" v:mID="8" v:groupContext="shape" transform="translate(135.905,-243)">
			<title>Actor.8</title>
			<desc>Játékos</desc>
			<v:userDefs>
				<v:ud v:nameU="visVersion" v:prompt="" v:val="VT0(15):26"/>
			</v:userDefs>
			<v:textBlock v:margins="rect(4,4,4,4)"/>
			<v:textRect cx="18" cy="623.202" width="46.76" height="22.4037"/>
			<path d="M7.2 612 L7.2 576 L7.2 590.4 L0 590.4 L0 561.6 L3.6 558 L32.4 558 L36 561.6 L36 590.4 L28.8 590.4 L28.8 576
						 L28.8 612 L18 612 L18 583.2 L18 612 L7.2 612 ZM25.2 547.2 A7.2 7.2 -180 1 0 10.8 547.2 A7.2 7.2 -180 1 0
						 25.2 547.2 Z" class="st4"/>
			<text x="-0.02" y="626.8" class="st2" v:langID="1038"><v:paragraph v:horizAlign="1"/><v:tabList/>Játékos</text>		</g>
		<g id="shape9-21" v:mID="9" v:groupContext="shape" transform="translate(261.905,-225)">
			<title>Use Case.9</title>
			<desc>Torony/Akadály fejlesztése</desc>
			<v:userDefs>
				<v:ud v:nameU="visVersion" v:prompt="" v:val="VT0(15):26"/>
			</v:userDefs>
			<v:textBlock v:margins="rect(4,4,4,4)"/>
			<v:textRect cx="71.0949" cy="594" width="142.19" height="36"/>
			<ellipse cx="71.0949" cy="594" rx="71.0949" ry="18" class="st1"/>
			<text x="5.36" y="597.6" class="st2" v:langID="1038"><v:paragraph v:horizAlign="1"/><v:tabList/>Torony/Akadály fejlesztése</text>		</g>
		<g id="shape10-24" v:mID="10" v:groupContext="shape" v:layerMember="0" transform="translate(167.547,-264.6)">
			<title>Association.10</title>
			<v:userDefs>
				<v:ud v:nameU="visVersion" v:prompt="" v:val="VT0(15):26"/>
			</v:userDefs>
			<path d="M0 612 L58.88 670.29" class="st3"/>
		</g>
		<g id="shape11-27" v:mID="11" v:groupContext="shape" v:layerMember="0" transform="translate(171,-276.695)">
			<title>Association.11</title>
			<v:userDefs>
				<v:ud v:nameU="visVersion" v:prompt="" v:val="VT0(15):26"/>
			</v:userDefs>
			<path d="M0 608.07 L112.56 597.93" class="st3"/>
		</g>
		<g id="shape12-30" v:mID="12" v:groupContext="shape" v:layerMember="0" transform="translate(171,-286.2)">
			<title>Association.12</title>
			<v:userDefs>
				<v:ud v:nameU="visVersion" v:prompt="" v:val="VT0(15):26"/>
			</v:userDefs>
			<path d="M0 612 L127.43 561.03" class="st3"/>
		</g>
		<g id="shape13-33" v:mID="13" v:groupContext="shape" v:layerMember="0" transform="translate(171,-293)">
			<title>Association.13</title>
			<v:userDefs>
				<v:ud v:nameU="visVersion" v:prompt="" v:val="VT0(15):26"/>
			</v:userDefs>
			<path d="M0 612 L122.73 516.54" class="st3"/>
		</g>
		<g id="shape15-36" v:mID="15" v:groupContext="shape" v:layerMember="0" transform="translate(171.905,-275.382)">
			<title>Association.15</title>
			<v:userDefs>
				<v:ud v:nameU="visVersion" v:prompt="" v:val="VT0(15):26"/>
			</v:userDefs>
			<path d="M0 612 L105.41 633.19" class="st3"/>
		</g>
	</g>
</svg>
